<?xml version="1.0" standalone="no"?>
<!DOCTYPE svg PUBLIC "-//W3C//DTD SVG 20010904//EN"
 "http://www.w3.org/TR/2001/REC-SVG-20010904/DTD/svg10.dtd">
<svg version="1.0" xmlns="http://www.w3.org/2000/svg"
 width="64.000000pt" height="64.000000pt" viewBox="0 0 64.000000 64.000000"
 preserveAspectRatio="xMidYMid meet">

<g transform="translate(0.000000,64.000000) scale(0.100000,-0.100000)"
fill="#000000" stroke="none">
<path d="M47 592 c-10 -10 -17 -27 -17 -38 0 -21 267 -294 288 -294 34 0 292
256 292 290 0 25 -34 60 -57 60 -10 0 -65 -47 -123 -104 l-105 -104 -107 104
c-112 109 -138 122 -171 86z"/>
<path d="M44 345 c-8 -13 -13 -32 -10 -43 3 -10 64 -75 134 -145 91 -90 136
-127 152 -127 16 0 61 37 152 127 70 70 131 135 134 145 9 29 -22 68 -54 68
-21 0 -50 -23 -129 -102 l-103 -103 -103 103 c-112 112 -141 125 -173 77z"/>
</g>
</svg>
